<svg version="1.1" viewBox="0.0 0.0 960.0 720.0" fill="none" stroke="none" stroke-linecap="square"
     stroke-miterlimit="10" xmlns:xlink="http://www.w3.org/1999/xlink" xmlns="http://www.w3.org/2000/svg">
    <clipPath id="p.0">
        <path d="m0 0l960.0 0l0 720.0l-960.0 0l0 -720.0z" clip-rule="nonzero"/>
    </clipPath>
    <g clip-path="url(#p.0)">
        <path fill="#000000" fill-opacity="0.0" d="m0 0l960.0 0l0 720.0l-960.0 0z" fill-rule="evenodd"/>
        <path fill="#000000" fill-opacity="0.0" d="m288.0 168.0l384.0 0l0 384.0l-384.0 0z" fill-rule="evenodd"/>
        <path stroke="#000000" stroke-width="1.0" stroke-linejoin="round" stroke-linecap="butt"
              d="m288.0 168.0l384.0 0l0 384.0l-384.0 0z" fill-rule="evenodd"/>
        <path fill="#000000" fill-opacity="0.0" d="m288.0 168.0l384.0 0l0 336.0l-384.0 0z" fill-rule="evenodd"/>
        <path fill="#38761d"
              d="m395.04688 481.925l38.875 -39.359375q38.875 -38.890625 58.3125 -60.96875q19.453125 -22.078125 30.96875 -43.90625q11.515625 -21.84375 11.515625 -45.375q0 -29.28125 -13.921875 -42.234375q-13.921875 -12.96875 -36.953125 -12.96875q-20.640625 0 -38.171875 9.125q-17.515625 9.125 -23.265625 20.15625q-2.890625 5.28125 -5.765625 10.8125q-2.875 5.515625 -2.875 6.46875q0 0.484375 0.46875 0.484375q0.484375 0 1.921875 -0.71875q1.4375 -0.71875 1.921875 1.203125l-1.4375 2.875l-4.328125 -2.40625l-24.46875 -19.1875q14.390625 -27.84375 39.34375 -42.953125q24.96875 -15.125 56.171875 -15.125q38.40625 0 62.15625 23.046875q23.765625 23.03125 23.765625 62.390625q0 25.921875 -12.484375 50.40625q-12.484375 24.46875 -31.921875 46.546875q-19.4375 22.078125 -54.0 56.15625l-32.640625 33.125l111.359375 0q7.6875 0 11.28125 -0.953125q3.609375 -0.96875 6.484375 -3.84375l3.359375 0l0 34.078125l-175.67188 0l0 -26.875z"
              fill-rule="nonzero"/>
    </g>
</svg>