<svg version="1.1" viewBox="0.0 0.0 960.0 720.0" fill="none" stroke="none" stroke-linecap="square"
     stroke-miterlimit="10" xmlns:xlink="http://www.w3.org/1999/xlink" xmlns="http://www.w3.org/2000/svg">
    <clipPath id="p.0">
        <path d="m0 0l960.0 0l0 720.0l-960.0 0l0 -720.0z" clip-rule="nonzero"/>
    </clipPath>
    <g clip-path="url(#p.0)">
        <path fill="#000000" fill-opacity="0.0" d="m0 0l960.0 0l0 720.0l-960.0 0z" fill-rule="evenodd"/>
        <path fill="#000000" fill-opacity="0.0" d="m288.0 168.0l384.0 0l0 384.0l-384.0 0z" fill-rule="evenodd"/>
        <path stroke="#000000" stroke-width="1.0" stroke-linejoin="round" stroke-linecap="butt"
              d="m288.0 168.0l384.0 0l0 384.0l-384.0 0z" fill-rule="evenodd"/>
        <path fill="#000000" fill-opacity="0.0" d="m288.0 168.0l384.0 0l0 336.0l-384.0 0z" fill-rule="evenodd"/>
        <path fill="#ff0000"
              d="m507.84375 350.39374q26.390625 8.640625 41.75 27.84375q15.359375 19.203125 15.359375 48.484375q0 24.0 -10.5625 43.921875q-10.546875 19.921875 -30.71875 31.6875q-20.15625 11.75 -48.46875 11.75q-24.0 0 -45.359375 -8.640625q-21.359375 -8.640625 -36.71875 -25.4375l22.078125 -26.40625l0.484375 -0.484375l0.46875 0.484375q12.0 15.359375 24.71875 23.53125q12.71875 8.15625 32.890625 8.15625q27.828125 0 42.234375 -16.3125q14.40625 -16.328125 14.40625 -43.6875q0 -29.765625 -18.0 -44.640625q-18.0 -14.890625 -50.640625 -14.890625q-4.8125 0 -15.359375 0.96875l0 -26.875q42.71875 0 58.3125 -15.84375q15.59375 -15.84375 15.59375 -43.203125q0 -20.15625 -11.765625 -32.15625q-11.75 -12.0 -30.953125 -12.0q-31.1875 0 -54.71875 22.078125l-20.15625 -20.15625q29.28125 -30.71875 74.40625 -30.71875q36.0 0 56.875 20.40625q20.875 20.390625 20.875 53.984375q0 24.484375 -12.0 42.734375q-12.0 18.234375 -35.03125 25.421875zm-86.890625 101.765625q0 1.4375 -1.4375 1.203125q-1.4375 -0.25 -2.875 -1.203125l1.921875 -2.40625l2.390625 2.40625zm-5.265625 0.953125q-1.921875 -3.359375 -0.734375 -2.390625q1.203125 0.953125 1.6875 1.4375l-0.953125 0.953125z"
              fill-rule="nonzero"/>
    </g>
</svg>