<svg version="1.1" viewBox="0.0 0.0 960.0 720.0" fill="none" stroke="none" stroke-linecap="square"
     stroke-miterlimit="10" xmlns:xlink="http://www.w3.org/1999/xlink" xmlns="http://www.w3.org/2000/svg">
    <clipPath id="p.0">
        <path d="m0 0l960.0 0l0 720.0l-960.0 0l0 -720.0z" clip-rule="nonzero"/>
    </clipPath>
    <g clip-path="url(#p.0)">
        <path fill="#000000" fill-opacity="0.0" d="m0 0l960.0 0l0 720.0l-960.0 0z" fill-rule="evenodd"/>
        <path fill="#000000" fill-opacity="0.0" d="m288.0 168.0l384.0 0l0 384.0l-384.0 0z" fill-rule="evenodd"/>
        <path stroke="#000000" stroke-width="1.0" stroke-linejoin="round" stroke-linecap="butt"
              d="m288.0 168.0l384.0 0l0 384.0l-384.0 0z" fill-rule="evenodd"/>
        <path fill="#000000" fill-opacity="0.0" d="m288.0 168.0l384.0 0l0 336.0l-384.0 0z" fill-rule="evenodd"/>
        <path fill="#0b5394"
              d="m512.6406 508.8l0 -73.4375l-129.59375 0l0 -24.484375l136.79688 -201.59375l28.3125 0l0 198.23438l38.40625 0l0 28.328125l-38.40625 0l0 72.953125l-35.515625 0zm-90.71875 -101.765625l90.71875 0l0 -137.28125l-90.71875 137.28125z"
              fill-rule="nonzero"/>
    </g>
</svg>