<svg version="1.1" viewBox="0.0 0.0 960.0 720.0" fill="none" stroke="none" stroke-linecap="square" stroke-miterlimit="10" xmlns:xlink="http://www.w3.org/1999/xlink" xmlns="http://www.w3.org/2000/svg"><clipPath id="p.0"><path d="m0 0l960.0 0l0 720.0l-960.0 0l0 -720.0z" clip-rule="nonzero"/></clipPath><g clip-path="url(#p.0)"><path fill="#000000" fill-opacity="0.0" d="m0 0l960.0 0l0 720.0l-960.0 0z" fill-rule="evenodd"/><path fill="#000000" fill-opacity="0.0" d="m288.0 168.0l384.0 0l0 384.0l-384.0 0z" fill-rule="evenodd"/><path stroke="#000000" stroke-width="1.0" stroke-linejoin="round" stroke-linecap="butt" d="m288.0 168.0l384.0 0l0 384.0l-384.0 0z" fill-rule="evenodd"/><path fill="#000000" fill-opacity="0.0" d="m288.0 168.0l384.0 0l0 336.0l-384.0 0z" fill-rule="evenodd"/><path fill="#85200c" d="m483.35938 314.39374q25.921875 0 46.3125 12.25q20.40625 12.234375 32.15625 35.046875q11.765625 22.796875 11.765625 53.03125q0 30.234375 -12.234375 52.796875q-12.234375 22.5625 -33.59375 34.5625q-21.359375 12.0 -48.25 12.0q-27.359375 0 -50.640625 -12.0q-23.28125 -12.0 -38.15625 -34.078125l26.875 -20.15625l0.484375 -0.484375q0.484375 0 0.484375 0.25q0 0.234375 0 0.234375q12.484375 19.1875 26.390625 28.078125q13.921875 8.875 36.484375 8.875q15.359375 0 28.796875 -8.875q13.453125 -8.890625 21.359375 -24.96875q7.921875 -16.078125 7.921875 -37.671875q0 -32.640625 -17.515625 -51.84375q-17.515625 -19.203125 -43.921875 -19.203125q-15.359375 0 -30.25 7.4375q-14.875 7.4375 -25.90625 20.890625l-21.125 -8.640625l10.078125 -152.17188l151.6875 0l0 30.25l-123.359375 0l-4.796875 85.921875q23.515625 -11.53125 48.953125 -11.53125zm-65.28125 132.96875q-2.390625 -3.84375 0.96875 -0.484375l-0.96875 0.484375zm5.28125 0q0 2.875 -4.3125 -0.484375l2.390625 -1.921875l1.921875 2.40625z" fill-rule="nonzero"/></g></svg>