<svg version="1.1" viewBox="0.0 0.0 960.0 720.0" fill="none" stroke="none" stroke-linecap="square" stroke-miterlimit="10" xmlns:xlink="http://www.w3.org/1999/xlink" xmlns="http://www.w3.org/2000/svg"><clipPath id="p.0"><path d="m0 0l960.0 0l0 720.0l-960.0 0l0 -720.0z" clip-rule="nonzero"/></clipPath><g clip-path="url(#p.0)"><path fill="#000000" fill-opacity="0.0" d="m0 0l960.0 0l0 720.0l-960.0 0z" fill-rule="evenodd"/><path fill="#000000" fill-opacity="0.0" d="m288.0 168.0l384.0 0l0 384.0l-384.0 0z" fill-rule="evenodd"/><path stroke="#000000" stroke-width="1.0" stroke-linejoin="round" stroke-linecap="butt" d="m288.0 168.0l384.0 0l0 384.0l-384.0 0z" fill-rule="evenodd"/><path fill="#000000" fill-opacity="0.0" d="m288.0 168.0l384.0 0l0 336.0l-384.0 0z" fill-rule="evenodd"/><path fill="#76a5af" d="m488.64062 315.84686q22.5625 0 41.28125 12.234375q18.71875 12.234375 29.75 34.5625q11.046875 22.3125 11.046875 51.109375q0 29.28125 -11.28125 51.84375q-11.28125 22.5625 -30.96875 35.28125q-19.671875 12.71875 -43.1875 12.71875q-44.15625 0 -68.640625 -37.671875q-24.484375 -37.6875 -24.484375 -103.4375q0 -52.8125 12.953125 -90.25q12.96875 -37.4375 36.71875 -56.640625q23.765625 -19.203125 55.9375 -19.203125q37.4375 0 65.75 27.359375l-21.109375 24.0l-0.484375 0.484375q-10.078125 -12.484375 -19.4375 -17.28125q-9.359375 -4.796875 -23.765625 -4.796875q-15.84375 0 -32.171875 9.84375q-16.3125 9.84375 -28.546875 35.53125q-12.234375 25.671875 -12.71875 70.3125q10.078125 -16.8125 27.109375 -26.40625q17.046875 -9.59375 36.25 -9.59375zm48.0 -56.640625q0 -2.890625 4.3125 0.46875l-1.90625 1.921875l-2.40625 -2.390625zm5.28125 -0.96875q2.875 3.84375 1.1875 2.640625q-1.671875 -1.203125 -2.15625 -1.203125l0.96875 -1.4375zm-55.203125 225.60938q21.59375 0 36.46875 -18.484375q14.890625 -18.484375 14.890625 -51.125q0 -22.5625 -7.6875 -38.15625q-7.671875 -15.59375 -19.671875 -23.28125q-12.0 -7.6875 -24.953125 -7.6875q-16.8125 0 -32.65625 11.28125q-15.828125 11.28125 -25.90625 29.046875q-0.96875 7.671875 -0.96875 12.484375q0 21.109375 7.4375 40.796875q7.453125 19.671875 21.359375 32.40625q13.921875 12.71875 31.6875 12.71875z" fill-rule="nonzero"/></g></svg>