<svg version="1.1" viewBox="0.0 0.0 960.0 720.0" fill="none" stroke="none" stroke-linecap="square"
     stroke-miterlimit="10" xmlns:xlink="http://www.w3.org/1999/xlink" xmlns="http://www.w3.org/2000/svg">
    <clipPath id="p.0">
        <path d="m0 0l960.0 0l0 720.0l-960.0 0l0 -720.0z" clip-rule="nonzero"/>
    </clipPath>
    <g clip-path="url(#p.0)">
        <path fill="#000000" fill-opacity="0.0" d="m0 0l960.0 0l0 720.0l-960.0 0z" fill-rule="evenodd"/>
        <path fill="#000000" fill-opacity="0.0" d="m288.0 168.0l384.0 0l0 384.0l-384.0 0z" fill-rule="evenodd"/>
        <path stroke="#000000" stroke-width="1.0" stroke-linejoin="round" stroke-linecap="butt"
              d="m288.0 168.0l384.0 0l0 384.0l-384.0 0z" fill-rule="evenodd"/>
        <path fill="#000000" fill-opacity="0.0" d="m288.0 168.0l384.0 0l0 336.0l-384.0 0z" fill-rule="evenodd"/>
        <path fill="#b7b7b7"
              d="m480.0 513.59686q-27.359375 0 -48.25 -10.546875q-20.875 -10.5625 -31.921875 -28.796875q-11.03125 -18.25 -11.03125 -40.8125q0 -25.921875 16.3125 -48.484375q16.328125 -22.5625 43.6875 -35.03125q-20.640625 -10.5625 -33.125 -29.515625q-12.46875 -18.96875 -12.46875 -40.5625q0 -32.171875 20.640625 -53.046875q20.640625 -20.875 58.5625 -20.875q39.359375 0 59.265625 19.921875q19.921875 19.90625 19.921875 51.109375q0 21.609375 -12.953125 41.046875q-12.953125 19.4375 -34.5625 30.953125q25.921875 12.0 41.765625 34.328125q15.84375 22.3125 15.84375 48.234375q0 23.046875 -11.28125 41.765625q-11.28125 18.71875 -32.171875 29.515625q-20.875 10.796875 -48.234375 10.796875zm8.15625 -176.64062q17.765625 -10.078125 29.28125 -26.15625q11.515625 -16.078125 11.515625 -32.875q0 -18.25 -12.484375 -30.96875q-12.46875 -12.71875 -35.03125 -12.71875q-22.5625 0 -34.328125 12.25q-11.75 12.234375 -11.75 30.0q0 20.15625 12.953125 33.125q12.96875 12.953125 39.84375 27.34375zm-7.203125 146.40625q26.890625 0 41.765625 -14.640625q14.875 -14.640625 14.875 -37.203125q0 -22.078125 -17.28125 -40.546875q-17.265625 -18.484375 -46.546875 -27.609375q-22.078125 9.125 -36.25 27.359375q-14.15625 18.234375 -14.15625 39.359375q0 22.5625 15.59375 37.921875q15.609375 15.359375 42.0 15.359375z"
              fill-rule="nonzero"/>
    </g>
</svg>