<svg version="1.1" viewBox="0.0 0.0 960.0 720.0" fill="none" stroke="none" stroke-linecap="square"
     stroke-miterlimit="10" xmlns:xlink="http://www.w3.org/1999/xlink" xmlns="http://www.w3.org/2000/svg">
    <clipPath id="p.0">
        <path d="m0 0l960.0 0l0 720.0l-960.0 0l0 -720.0z" clip-rule="nonzero"/>
    </clipPath>
    <g clip-path="url(#p.0)">
        <path fill="#000000" fill-opacity="0.0" d="m0 0l960.0 0l0 720.0l-960.0 0z" fill-rule="evenodd"/>
        <path fill="#000000" d="m472.0 352.0l16.0 0l0 120.0l-16.0 0z" fill-rule="evenodd"/>
        <path stroke="#000000" stroke-width="1.0" stroke-linejoin="round" stroke-linecap="butt"
              d="m472.0 352.0l16.0 0l0 120.0l-16.0 0z" fill-rule="evenodd"/>
        <path fill="#000000" d="m384.0 488.0l0 -24.0l192.0 0l0 24.0z" fill-rule="evenodd"/>
        <path stroke="#000000" stroke-width="1.0" stroke-linejoin="round" stroke-linecap="butt"
              d="m384.0 488.0l0 -24.0l192.0 0l0 24.0z" fill-rule="evenodd"/>
        <path fill="#000000" d="m432.0 464.0l0 -24.0l96.0 0l0 24.0z" fill-rule="evenodd"/>
        <path stroke="#000000" stroke-width="1.0" stroke-linejoin="round" stroke-linecap="butt"
              d="m432.0 464.0l0 -24.0l96.0 0l0 24.0z" fill-rule="evenodd"/>
        <path fill="#ff0000" d="m488.0 384.0l-104.0 -72.0l104.0 -72.0z" fill-rule="evenodd"/>
        <path stroke="#ff0000" stroke-width="1.0" stroke-linejoin="round" stroke-linecap="butt"
              d="m488.0 384.0l-104.0 -72.0l104.0 -72.0z" fill-rule="evenodd"/>
        <path fill="#f9f9f9" d="m288.0 552.0l0 -384.0l48.0 0l0 384.0z" fill-rule="evenodd"/>
        <path fill="#999999" d="m336.0 552.0l-48.0 0l48.0 -48.0z" fill-rule="evenodd"/>
        <path stroke="#999999" stroke-width="1.0" stroke-linejoin="round" stroke-linecap="butt"
              d="m336.0 552.0l-48.0 0l48.0 -48.0z" fill-rule="evenodd"/>
        <path fill="#f9f9f9" d="m288.0 168.0l384.0 0l0 48.0l-384.0 0z" fill-rule="evenodd"/>
        <path fill="#999999" d="m672.0 216.0l-48.0 0l48.0 -48.0z" fill-rule="evenodd"/>
        <path stroke="#999999" stroke-width="1.0" stroke-linejoin="round" stroke-linecap="butt"
              d="m672.0 216.0l-48.0 0l48.0 -48.0z" fill-rule="evenodd"/>
        <path fill="#999999" d="m624.0 216.0l48.0 0l0 336.0l-48.0 0z" fill-rule="evenodd"/>
        <path fill="#999999" d="m336.0 552.0l0 -48.0l336.0 0l0 48.0z" fill-rule="evenodd"/>
        <path fill="#000000" fill-opacity="0.0" d="m336.0 216.0l288.0 0l0 288.0l-288.0 0z" fill-rule="evenodd"/>
        <path stroke="#000000" stroke-width="1.0" stroke-linejoin="round" stroke-linecap="butt"
              d="m336.0 216.0l288.0 0l0 288.0l-288.0 0z" fill-rule="evenodd"/>
        <path fill="#000000" fill-opacity="0.0" d="m288.0 168.0l384.0 0l0 384.0l-384.0 0z" fill-rule="evenodd"/>
        <path stroke="#000000" stroke-width="1.0" stroke-linejoin="round" stroke-linecap="butt"
              d="m288.0 168.0l384.0 0l0 384.0l-384.0 0z" fill-rule="evenodd"/>
    </g>
</svg>